<?xml version="1.0" encoding="UTF-8" standalone="no"?><!DOCTYPE svg PUBLIC "-//W3C//DTD SVG 1.1//EN" "http://www.w3.org/Graphics/SVG/1.1/DTD/svg11.dtd"><svg width="100%" height="100%" viewBox="0 0 1792 680" version="1.1" xmlns="http://www.w3.org/2000/svg" xmlns:xlink="http://www.w3.org/1999/xlink" xml:space="preserve" xmlns:serif="http://www.serif.com/" style="fill-rule:evenodd;clip-rule:evenodd;stroke-linejoin:round;stroke-miterlimit:2;"><g id="logo-daone2"><path d="M906.883,306.82l0,-295.678c0,-3.496 2.106,-6.647 5.335,-7.985c3.23,-1.338 6.948,-0.598 9.42,1.874c36.746,36.746 131.598,131.598 162.357,162.357c6.267,6.267 14.766,9.787 23.629,9.787l442.678,0c21.859,0 43.185,6.745 61.069,19.314c44.13,31.014 130.37,91.623 175.171,123.109c3.939,2.768 5.629,7.768 4.177,12.358c-1.451,4.589 -5.709,7.709 -10.523,7.709l-840.468,0c-8.711,0 -17.066,-3.461 -23.225,-9.62c-6.16,-6.16 -9.62,-14.514 -9.62,-23.225Zm20.833,-266.249l0,266.249c0,3.186 1.266,6.241 3.518,8.494c2.253,2.252 5.308,3.518 8.494,3.518l809.492,0l-149.828,-105.299c-14.376,-10.103 -31.519,-15.524 -49.09,-15.524l-442.678,0c-14.388,0 -28.186,-5.716 -38.36,-15.89l-141.548,-141.548Z" style="fill:#fff;"/><path d="M906.883,372.51l0,295.677c0,3.496 -2.106,6.648 -5.336,7.986c-3.23,1.338 -6.947,0.598 -9.42,-1.874c-36.745,-36.746 -131.598,-131.598 -162.357,-162.357c-6.267,-6.267 -14.766,-9.787 -23.628,-9.787l-442.678,0c-21.859,0 -43.186,-6.745 -61.07,-19.314c-44.129,-31.014 -130.37,-91.623 -175.171,-123.109c-3.938,-2.768 -5.628,-7.769 -4.177,-12.358c1.451,-4.59 5.71,-7.709 10.523,-7.709l840.469,0c8.711,0 17.065,3.46 23.225,9.62c6.159,6.159 9.62,14.514 9.62,23.225Zm-842.337,-12.012l149.827,105.298c14.376,10.104 31.52,15.525 49.091,15.525l442.678,0c14.387,0 28.186,5.716 38.359,15.889l141.548,141.548l0,-266.248c0,-3.186 -1.265,-6.241 -3.518,-8.494c-2.252,-2.252 -5.307,-3.518 -8.493,-3.518l-809.492,0Z" style="fill:#fff;"/><text x="-0.323px" y="253.788px" style="font-family:'ArialRoundedMTBold', 'Arial Rounded MT Bold', sans-serif;font-size:208.333px;fill:#fff;">TRA<tspan x="418.988px 562.319px " y="253.788px 253.788px ">VE</tspan>L</text><text x="974.143px" y="574.671px" style="font-family:'ArialRoundedMTBold', 'Arial Rounded MT Bold', sans-serif;font-size:208.333px;fill:#fff;">B<tspan x="1116.05px 1274.34px 1428.55px 1574.83px " y="574.671px 574.671px 574.671px 574.671px ">UDDY</tspan></text><path d="M1576.68,219.902c-3.286,-2.273 -7.187,-3.49 -11.183,-3.49l-41.98,0l0,29.039l90.115,0c0,0 -25.792,-17.833 -36.952,-25.549Z" style="fill:#fff;"/><path d="M237.084,459.428c3.287,2.273 7.188,3.49 11.183,3.49l41.981,0l0,-29.039l-90.116,0c0,0 25.792,17.833 36.952,25.549Z" style="fill:#fff;"/></g></svg>